<svg width="38" height="36" viewBox="0 0 38 36" fill="none" xmlns="http://www.w3.org/2000/svg">
<rect width="38" height="36" rx="4" fill="black" fill-opacity="0.9"/>
<path fill-rule="evenodd" clip-rule="evenodd" d="M14 10C12.3431 10 11 11.3431 11 13V23C11 23.6293 11.1938 24.2133 11.5249 24.6957C12.3116 24.6624 13.0983 24.6286 13.8845 24.5896C14.048 24.5816 14.211 24.5652 14.3775 24.5484H14.3775L14.3777 24.5484C14.4579 24.5403 14.5388 24.5321 14.6211 24.5248C14.6386 24.1791 14.6546 23.839 14.6704 23.5023L14.6704 23.5022C14.6912 23.0599 14.7118 22.6233 14.7351 22.1871C14.7773 21.3771 14.9449 20.6111 15.3833 19.9172C15.6598 19.4802 15.9138 19.0275 16.1677 18.5751L16.1677 18.5751L16.1677 18.575C16.2682 18.396 16.3686 18.2169 16.4705 18.0389C16.5127 17.9563 16.5507 17.8715 16.5845 17.7848C16.4626 17.7595 16.3455 17.7379 16.232 17.7169L16.232 17.7169L16.232 17.7169C16.0325 17.68 15.8438 17.6451 15.6581 17.5961C15.5604 17.5623 15.4554 17.5583 15.3556 17.5847C15.2558 17.611 15.1653 17.6666 15.0948 17.7449C14.5666 18.2664 14.0287 18.7769 13.4906 19.2875L13.1485 19.6125C12.8087 19.9356 12.4564 19.9511 12.1896 19.6851C11.9227 19.419 11.9416 19.0161 12.2466 18.659C12.9383 17.8584 13.6302 17.0569 14.3223 16.2547C14.5207 16.0249 14.7624 15.8762 15.0635 15.8708C15.4513 15.8644 15.8391 15.8557 16.2269 15.8471L16.227 15.8471C17.2788 15.8236 18.3307 15.8001 19.382 15.8214C20.2092 15.8381 20.9185 16.2059 21.3882 16.9736C21.5584 17.2519 21.7329 17.5273 21.9074 17.8027L21.9074 17.8028C22.0777 18.0716 22.248 18.3404 22.4144 18.612C22.4513 18.6846 22.507 18.745 22.5752 18.7862C22.6433 18.8274 22.7211 18.8479 22.7998 18.8453C23.6042 18.8709 24.4081 18.915 25.2119 18.9602C25.3627 18.9639 25.512 18.9933 25.6538 19.0471C25.9228 19.1607 26.0431 19.4613 25.9861 19.7898C25.9342 20.0773 25.7085 20.2743 25.4001 20.2903C25.0728 20.3073 24.7454 20.3227 24.4181 20.3382C23.7237 20.3709 23.0293 20.4037 22.3357 20.451C21.9486 20.4772 21.6573 20.3612 21.4236 20.0404C21.1681 19.6903 20.9055 19.3461 20.643 19.0022L20.492 18.8043C20.3039 18.5585 20.2292 18.5549 20.0895 18.8346C19.824 19.3708 19.5694 19.9126 19.3154 20.4531L19.1528 20.7986C19.0485 21.02 19.0856 21.2301 19.1996 21.4467C19.657 22.3109 20.1093 23.1781 20.5616 24.045L20.5618 24.0455L20.9567 24.8021C21.1655 25.2014 21.374 25.6007 21.5822 26H24C25.6569 26 27 24.6569 27 23V13C27 11.3431 25.6569 10 24 10H14ZM19.2979 26L17.483 23.1512C17.4084 23.0369 17.3335 22.9245 17.2523 22.8027L17.2523 22.8026L17.2522 22.8026C17.1956 22.7177 17.136 22.6282 17.0714 22.5304C17.0406 22.6218 17.0153 22.715 16.9956 22.8096C16.8758 23.7491 16.759 24.689 16.6449 25.6294C16.6282 25.7644 16.5956 25.8885 16.5485 26H19.2979ZM20.7149 12.0018C19.7805 12.0018 19.0616 12.7499 19.0616 13.7241C19.0584 13.9517 19.0989 14.1777 19.1809 14.3886C19.2628 14.5995 19.3845 14.7911 19.5386 14.952C19.6928 15.113 19.8764 15.24 20.0784 15.3255C20.2805 15.4111 20.4969 15.4534 20.7149 15.45C20.9381 15.4607 21.1611 15.4239 21.3703 15.3421C21.5795 15.2602 21.7707 15.1349 21.9323 14.9738C22.0938 14.8126 22.2224 14.619 22.3102 14.4045C22.3981 14.19 22.4434 13.9592 22.4434 13.7259C22.4434 13.4927 22.3981 13.2618 22.3102 13.0473C22.2224 12.8329 22.0938 12.6392 21.9323 12.4781C21.7707 12.3169 21.5795 12.1916 21.3703 12.1098C21.1611 12.0279 20.9381 11.9912 20.7149 12.0018Z" fill="#F9FAFA"/>
</svg>
